<?xml version="1.0" standalone="no"?><!DOCTYPE svg PUBLIC "-//W3C//DTD SVG 1.1//EN" "http://www.w3.org/Graphics/SVG/1.1/DTD/svg11.dtd"><svg t="1509084998462" class="icon" style="" viewBox="0 0 1024 1024" version="1.1" xmlns="http://www.w3.org/2000/svg" p-id="5773" xmlns:xlink="http://www.w3.org/1999/xlink" width="48" height="48"><defs><style type="text/css"></style></defs><path d="M361.983 75.876c6.769-5.923 16.922-10.576 25.383-14.384-139.184 52.882-252.563 208.988-227.603 366.364 33.844 210.257 264.831 330.404 320.251 356.634-473.396-428.976-118.032-708.614-118.032-708.614z" fill="#1195db" p-id="5774" class="selected"></path><path d="M507.514 781.952l35.536-5.923c-219.988-470.858-115.493-722.998-115.493-722.998 2.538-2.115 5.077-3.384 7.615-4.654-13.115 2.538-26.229 5.923-38.921 10.576 5.077-1.692 8.461-2.538 8.461-2.538-231.41 252.986 75.303 687.884 102.802 725.536zM592.547 767.991l35.536-5.923c15.653-45.69 178.951-549.546-118.878-717.921 0 0 0-0.423 2.538-0.846-14.384-0.846-29.191-0.846-43.151 0h0.846c148.492 197.143 124.801 695.499 123.108 724.69z" fill="#1195db" p-id="5775" class="selected"></path><path d="M655.582 754.030c45.267-47.805 211.95-238.602 184.028-434.899-19.883-141.723-153.145-245.794-288.522-270.754 49.92 21.153 395.978 190.374 104.494 705.653z" fill="#1195db" p-id="5776" class="selected"></path><path d="M507.514 781.952c-27.498-37.652-334.212-472.55-103.225-725.959 0 0-3.384 0.846-8.461 2.538-2.961 0.846-5.923 2.115-8.884 2.961-8.884 3.384-18.614 8.038-25.383 14.384 0 0-354.942 279.215 118.455 708.614l2.538 1.269 24.96-3.807zM508.783 44.147c297.829 168.375 134.531 672.231 118.878 717.921l23.268-3.807v0.846l4.654-4.654c291.484-515.702-54.574-684.923-104.071-706.076-13.538-2.538-26.652-4.231-40.19-5.077-2.538 0.423-2.538 0.846-2.538 0.846z" fill="#F6E9B2" p-id="5777"></path><path d="M543.050 776.029l49.497-8.038c1.692-28.768 25.383-527.124-123.955-723.844h-0.846c-8.038 0.423-15.653 1.269-23.268 2.538-2.961 0.423-6.346 1.269-9.307 1.692-2.538 1.269-5.077 2.961-7.615 4.654 0 0-104.494 252.14 115.493 722.998z" fill="#F6F29B" p-id="5778"></path><path d="M517.244 893.638l-24.537-87.995 2.961-0.846 7.192 24.537 7.615-23.268 2.961 0.846-9.307 28.345 16.076 57.535zM581.971 883.061l-8.884-57.958-24.96-23.268 2.538-2.115 21.576 19.883-5.077-33.421 3.384-0.423 5.077 32.998 11.845-25.383 2.961 1.269-13.961 29.614 8.884 58.381zM650.083 871.216l-3.384-58.381-20.73-25.383 2.538-2.115 18.191 21.999-1.692-26.229 3.384-0.423 4.654 90.11z" fill="#87643A" p-id="5779"></path><path d="M647.967 786.605l-153.568 24.537-46.959-42.728 229.295-36.383z" fill="#87643A" p-id="5780"></path><path d="M460.978 780.682l-6.769-6.346 218.718-35.113-4.231 8.038-207.719 33.421zM488.476 806.066l162.875-26.229 4.231-8.038-173.875 27.922 6.769 6.346z" fill="#F6E9B2" p-id="5781"></path><path d="M667.428 948.635c5.923-24.537-12.692-79.534-12.692-79.534l-140.454 22.422s-0.423 57.958 12.692 79.534c10.999 17.768 135.8-2.538 140.454-22.422z" fill="#87643A" p-id="5782"></path><path d="M668.697 941.443c1.692-26.652-13.961-71.919-13.961-71.919l-140.454 21.999s-0.423 47.805 9.307 72.765c32.998 4.654 115.493-8.461 145.107-22.845z" fill="#F6E9B2" p-id="5783"></path><path d="M661.949 873.64l-150.383 24.093-1.269-7.936 150.378-24.093z" fill="#87643A" p-id="5784"></path></svg>